<svg width="252" height="151" viewBox="0 0 252 151" fill="none" xmlns="http://www.w3.org/2000/svg">
<path d="M125.999 21.9068C132.007 21.9068 136.878 17.0028 136.878 10.9534C136.878 4.90401 132.007 0 125.999 0C119.99 0 115.119 4.90401 115.119 10.9534C115.119 17.0028 119.99 21.9068 125.999 21.9068Z" fill="url(#paint0_linear_1739_12862)"></path>
<path d="M104.951 83L80.8514 58.7368C77.0495 54.9092 77.0495 48.7019 80.8514 44.8743C84.6549 41.0467 90.8187 41.0467 94.6222 44.8743L104.951 55.2733L139.609 20.3807C143.411 16.5531 149.576 16.5531 153.38 20.3807C157.181 24.2083 157.181 30.4156 153.38 34.2432L104.951 83Z" fill="url(#paint1_linear_1739_12862)"></path>
<path d="M123.127 31.1902L112.392 20.3821C108.588 16.5545 102.425 16.5545 98.6211 20.3821C94.8193 24.2097 94.8193 30.417 98.6211 34.2446L109.356 45.0528L123.127 31.1902Z" fill="url(#paint2_linear_1739_12862)"></path>
<path d="M171.147 44.8739C167.345 41.0463 161.18 41.0463 157.376 44.8739L147.047 55.2728L126.056 34.1376L112.287 48.0001L147.049 82.9996L171.149 58.7364C174.951 54.9088 174.951 48.7015 171.147 44.8739Z" fill="url(#paint3_linear_1739_12862)"></path>
<path d="M0 137.656V105.126C0 102.531 1.38184 100.653 4.14301 100.653C6.18683 100.653 7.51079 101.869 8.3414 104.021L20.7126 134.122L32.973 104.021C33.8011 101.867 35.2937 100.653 37.2267 100.653C39.8771 100.653 41.3697 102.531 41.3697 104.907V137.656C41.3697 138.982 40.3201 140.087 38.9962 140.087C37.559 140.087 36.5647 138.982 36.5647 137.656V108.162H36.2325L24.025 137.656C23.363 139.312 22.0919 140.087 20.71 140.087C19.1646 140.087 17.8935 139.259 17.2844 137.767L5.13472 108.162H4.80247V137.656C4.80247 138.982 3.80825 140.087 2.42641 140.087C1.04708 140.087 0 138.982 0 137.656Z" fill="#12284B"></path>
<path d="M75.6129 113.025L64.236 139.703C62.3583 144.12 59.4864 150.639 52.3053 150.639C47.3896 150.639 43.5234 147.601 43.5234 144.84C43.5234 143.403 44.573 142.353 45.8995 142.353C46.7276 142.353 47.2813 142.685 47.9433 143.403C48.8268 144.397 50.0425 145.668 52.5268 145.668C55.3987 145.668 57.4426 143.679 58.988 140.309L60.093 137.988C57.8277 137.933 56.7781 136.607 56.0053 134.84L46.5061 113.188C45.678 111.311 47.0573 109.488 48.9376 109.488C50.1533 109.488 51.1475 110.15 51.6433 111.311L60.9765 133.79H61.3087L70.4782 111.366C70.9741 110.15 72.0237 109.488 73.2394 109.488C75.0063 109.488 76.3303 111.311 75.6129 113.025Z" fill="#12284B"></path>
<path d="M149.096 127.201C149.096 122.414 151.835 120.28 157.974 120.28C161.616 120.28 166.459 120.992 166.459 127.136C166.459 131.77 163.647 134.118 158.102 134.118C152.129 134.118 149.096 131.792 149.096 127.201ZM137.624 104.347V132.122V137.743C136.959 136.031 135.436 134.546 132.909 134.317L132.479 134.277V115.538C132.479 112.288 129.833 110.534 127.347 110.534C125.23 110.534 123.075 111.833 122.388 114.058C121.547 111.825 119.453 110.534 117.399 110.534C116.259 110.534 114.56 110.896 112.927 112.638L96.1431 129.635L88.0258 121.656C86.6993 120.257 85.179 119.96 84.1395 119.96C81.4387 119.96 78.5215 122.082 78.5215 125.515C78.5215 127.77 79.8354 129.215 81.3003 130.612L96.2413 144.783L104.495 136.859L119.864 121.586C120.878 120.607 121.643 119.693 122.146 118.709V141.08C122.146 143.68 124.173 145.042 126.174 145.042H132.622C135.414 145.042 137.163 143.315 137.767 141.324C137.981 142.278 138.381 143.164 138.95 143.791C139.841 144.775 140.878 145.042 142.298 145.042C144.737 145.042 147.055 143.55 147.239 140.282L147.45 134.096V134.511C148.235 141.413 154.206 144.911 161.455 144.911C165.334 144.911 169.353 143.285 172.039 139.311C172.026 139.464 171.999 139.623 171.999 139.776C171.999 142.331 173.889 145.042 177.395 145.042H183.844C184.674 145.042 185.472 144.813 186.179 144.357C187.846 143.451 188.8 141.878 188.8 140.038V128.437C188.8 124.725 191.553 122.414 195.986 122.414C196.187 122.414 196.389 122.422 196.602 122.429C196.779 122.442 196.952 122.447 197.121 122.447C198.943 122.447 200.484 121.722 201.576 120.353C202.137 119.648 202.543 118.782 202.804 117.838C203.469 119.547 204.989 121.027 207.514 121.256L207.942 121.294V140.033C207.942 143.283 210.587 145.037 213.076 145.037C215.271 145.037 217.514 143.653 218.113 141.282C218.908 143.328 220.839 144.511 222.737 144.511C223.794 144.511 225.375 144.171 226.892 142.555L234.358 134.896L242.671 143.076C243.907 144.38 245.317 144.654 246.281 144.654C247.6 144.654 248.916 144.136 249.89 143.232C250.93 142.266 251.504 140.937 251.504 139.495C251.504 137.398 250.278 136.054 248.911 134.747L241.702 127.836L242.488 127.058L249.276 120.876C250.96 119.255 252 117.851 252 115.87C252 112.567 249.455 110.592 246.991 110.592C245.936 110.592 244.353 110.931 242.825 112.557L235.015 120.046L234.685 120.373L230.406 116.232C229.173 114.928 227.761 114.654 226.794 114.654C224.282 114.654 221.571 116.625 221.571 119.817C221.571 121.913 222.797 123.257 224.156 124.556L227.287 127.478L220.449 134.226C219.465 135.173 218.737 136.059 218.271 137.015V114.488C218.271 111.888 216.245 110.526 214.244 110.526H207.806C205.314 110.526 203.655 111.906 202.895 113.615C202.293 111.329 200.569 109.877 198.203 109.877C194.483 109.877 188.598 112.688 187.992 120.584V121.02L187.571 114.387C187.405 111.606 185.517 109.809 182.764 109.809C179.99 109.809 177.81 111.724 177.682 114.345C177.589 114.755 177.544 115.142 177.544 115.528V134.267L177.118 134.307C175.746 134.43 174.677 134.931 173.866 135.626C174.702 133.262 175.195 130.396 175.195 126.932C175.195 115.686 170.4 109.741 161.329 109.741C154.88 109.741 149.305 113.816 147.959 120.378V104.337C147.959 101.087 145.313 99.333 142.824 99.333C140.302 99.3431 137.624 101.097 137.624 104.347Z" fill="#12284B"></path>
<mask id="mask0_1739_12862" style="mask-type:luminance" maskUnits="userSpaceOnUse" x="78" y="99" width="174" height="47">
<path d="M149.096 127.201C149.096 122.414 151.835 120.28 157.974 120.28C161.616 120.28 166.459 120.992 166.459 127.136C166.459 131.77 163.647 134.118 158.102 134.118C152.129 134.118 149.096 131.792 149.096 127.201ZM137.624 104.347V132.122V137.743C136.959 136.031 135.436 134.546 132.909 134.317L132.479 134.277V115.538C132.479 112.288 129.833 110.534 127.347 110.534C125.23 110.534 123.075 111.833 122.388 114.058C121.547 111.825 119.453 110.534 117.399 110.534C116.259 110.534 114.56 110.896 112.927 112.638L96.1431 129.635L88.0258 121.656C86.6993 120.257 85.179 119.96 84.1395 119.96C81.4387 119.96 78.5215 122.082 78.5215 125.515C78.5215 127.77 79.8354 129.215 81.3003 130.612L96.2413 144.783L104.495 136.859L119.864 121.586C120.878 120.607 121.643 119.693 122.146 118.709V141.08C122.146 143.68 124.173 145.042 126.174 145.042H132.622C135.414 145.042 137.163 143.315 137.767 141.324C137.981 142.278 138.381 143.164 138.95 143.791C139.841 144.775 140.878 145.042 142.298 145.042C144.737 145.042 147.055 143.55 147.239 140.282L147.45 134.096V134.511C148.235 141.413 154.206 144.911 161.455 144.911C165.334 144.911 169.353 143.285 172.039 139.311C172.026 139.464 171.999 139.623 171.999 139.776C171.999 142.331 173.889 145.042 177.395 145.042H183.844C184.674 145.042 185.472 144.813 186.179 144.357C187.846 143.451 188.8 141.878 188.8 140.038V128.437C188.8 124.725 191.553 122.414 195.986 122.414C196.187 122.414 196.389 122.422 196.602 122.429C196.779 122.442 196.952 122.447 197.121 122.447C198.943 122.447 200.484 121.722 201.576 120.353C202.137 119.648 202.543 118.782 202.804 117.838C203.469 119.547 204.989 121.027 207.514 121.256L207.942 121.294V140.033C207.942 143.283 210.587 145.037 213.076 145.037C215.271 145.037 217.514 143.653 218.113 141.282C218.908 143.328 220.839 144.511 222.737 144.511C223.794 144.511 225.375 144.171 226.892 142.555L234.358 134.896L242.671 143.076C243.907 144.38 245.317 144.654 246.281 144.654C247.6 144.654 248.916 144.136 249.89 143.232C250.93 142.266 251.504 140.937 251.504 139.495C251.504 137.398 250.278 136.054 248.911 134.747L241.702 127.836L242.488 127.058L249.276 120.876C250.96 119.255 252 117.851 252 115.87C252 112.567 249.455 110.592 246.991 110.592C245.936 110.592 244.353 110.931 242.825 112.557L235.015 120.046L234.685 120.373L230.406 116.232C229.173 114.928 227.761 114.654 226.794 114.654C224.282 114.654 221.571 116.625 221.571 119.817C221.571 121.913 222.797 123.257 224.156 124.556L227.287 127.478L220.449 134.226C219.465 135.173 218.737 136.059 218.271 137.015V114.488C218.271 111.888 216.245 110.526 214.244 110.526H207.806C205.314 110.526 203.655 111.906 202.895 113.615C202.293 111.329 200.569 109.877 198.203 109.877C194.483 109.877 188.598 112.688 187.992 120.584V121.02L187.571 114.387C187.405 111.606 185.517 109.809 182.764 109.809C179.99 109.809 177.81 111.724 177.682 114.345C177.589 114.755 177.544 115.142 177.544 115.528V134.267L177.118 134.307C175.746 134.43 174.677 134.931 173.866 135.626C174.702 133.262 175.195 130.396 175.195 126.932C175.195 115.686 170.4 109.741 161.329 109.741C154.88 109.741 149.305 113.816 147.959 120.378V104.337C147.959 101.087 145.313 99.333 142.824 99.333C140.302 99.3431 137.624 101.097 137.624 104.347Z" fill="white"></path>
</mask>
<g mask="url(#mask0_1739_12862)">
<path d="M252.008 99.3428H78.5254V145.042H252.008V99.3428Z" fill="#12284B"></path>
</g>
<path d="M122.234 101.98C122.234 104.887 124.593 107.251 127.5 107.251C130.41 107.251 132.768 104.887 132.768 101.98C132.768 99.0754 130.41 96.7119 127.5 96.7119C124.595 96.7119 122.234 99.0754 122.234 101.98Z" fill="#12284B"></path>
<mask id="mask1_1739_12862" style="mask-type:luminance" maskUnits="userSpaceOnUse" x="122" y="96" width="11" height="12">
<path d="M122.234 101.98C122.234 104.887 124.593 107.251 127.5 107.251C130.41 107.251 132.768 104.887 132.768 101.98C132.768 99.0754 130.41 96.7119 127.5 96.7119C124.595 96.7119 122.234 99.0754 122.234 101.98Z" fill="white"></path>
</mask>
<g mask="url(#mask1_1739_12862)">
<path d="M132.768 96.7119H122.234V107.251H132.768V96.7119Z" fill="#12284B"></path>
</g>
<path d="M207.162 101.98C207.162 104.887 209.523 107.251 212.43 107.251C215.34 107.251 217.701 104.887 217.701 101.98C217.701 99.0754 215.34 96.7119 212.43 96.7119C209.523 96.7119 207.162 99.0754 207.162 101.98Z" fill="#12284B"></path>
<mask id="mask2_1739_12862" style="mask-type:luminance" maskUnits="userSpaceOnUse" x="207" y="96" width="11" height="12">
<path d="M207.162 101.98C207.162 104.887 209.523 107.251 212.43 107.251C215.34 107.251 217.701 104.887 217.701 101.98C217.701 99.0754 215.34 96.7119 212.43 96.7119C209.523 96.7119 207.162 99.0754 207.162 101.98Z" fill="white"></path>
</mask>
<g mask="url(#mask2_1739_12862)">
<path d="M217.701 96.7119H207.162V107.251H217.701V96.7119Z" fill="#12284B"></path>
</g>
<defs>
<linearGradient id="paint0_linear_1739_12862" x1="174.103" y1="47.4385" x2="77.888" y2="47.4385" gradientUnits="userSpaceOnUse">
<stop stop-color="#63BB69"></stop>
<stop offset="1" stop-color="#1CA999"></stop>
</linearGradient>
<linearGradient id="paint1_linear_1739_12862" x1="174.103" y1="47.4385" x2="77.888" y2="47.4385" gradientUnits="userSpaceOnUse">
<stop stop-color="#63BB69"></stop>
<stop offset="1" stop-color="#1CA999"></stop>
</linearGradient>
<linearGradient id="paint2_linear_1739_12862" x1="174.103" y1="47.4385" x2="77.888" y2="47.4385" gradientUnits="userSpaceOnUse">
<stop stop-color="#63BB69"></stop>
<stop offset="1" stop-color="#1CA999"></stop>
</linearGradient>
<linearGradient id="paint3_linear_1739_12862" x1="174.103" y1="47.4385" x2="77.888" y2="47.4385" gradientUnits="userSpaceOnUse">
<stop stop-color="#63BB69"></stop>
<stop offset="1" stop-color="#1CA999"></stop>
</linearGradient>
</defs>
</svg>